RBDS012runT25_grf
version=1
nRows=27
nColumns=19
inDegrees=no
endheader
time	ground_force_r_vx	ground_force_r_vy	ground_force_r_vz	ground_force_r_px	ground_force_r_py	ground_force_r_pz	ground_force_r_mx	ground_force_r_my	ground_force_r_mz	ground_force_l_vx	ground_force_l_vy	ground_force_l_vz	ground_force_l_px	ground_force_l_py	ground_force_l_pz	ground_force_l_mx	ground_force_l_my	ground_force_l_mz
     22.49800000	      0.00000000	      0.00000000	      0.00000000	      0.00000000	      0.00000000	      0.00000000	      0.00000000	      0.00000000	      0.00000000	    130.48931974	   1197.78683782	     43.92966660	      1.95148215	      0.00000000	      0.90190288	     -0.00000000	     11.91697613	      0.00000000
     22.49900000	      0.00000000	      0.00000000	      0.00000000	      0.00000000	      0.00000000	      0.00000000	      0.00000000	      0.00000000	      0.00000000	    132.58619038	   1181.57782443	     42.62745645	      1.94929622	      0.00000000	      0.90189909	     -0.00000000	     11.76854437	      0.00000000
     22.50000000	      0.00000000	      0.00000000	      0.00000000	      0.00000000	      0.00000000	      0.00000000	      0.00000000	      0.00000000	      0.00000000	    134.68306102	   1165.36881103	     41.32524629	      1.94711030	      0.00000000	      0.90189530	     -0.00000000	     11.62011261	      0.00000000
     22.50100000	      0.00000000	      0.00000000	      0.00000000	      0.00000000	      0.00000000	      0.00000000	      0.00000000	      0.00000000	      0.00000000	    136.54683159	   1148.64958396	     40.03001334	      1.94490162	      0.00000000	      0.90188964	     -0.00000000	     11.46150077	      0.00000000
     22.50200000	      0.00000000	      0.00000000	      0.00000000	      0.00000000	      0.00000000	      0.00000000	      0.00000000	      0.00000000	      0.00000000	    138.41060216	   1131.93035688	     38.73478038	      1.94269294	      0.00000000	      0.90188398	     -0.00000000	     11.30288893	      0.00000000
     22.50300000	      0.00000000	      0.00000000	      0.00000000	      0.00000000	      0.00000000	      0.00000000	      0.00000000	      0.00000000	      0.00000000	    140.27437273	   1115.21112981	     37.43954743	      1.94048426	      0.00000000	      0.90187832	     -0.00000000	     11.14427709	      0.00000000
     22.50400000	      0.00000000	      0.00000000	      0.00000000	      0.00000000	      0.00000000	      0.00000000	      0.00000000	      0.00000000	      0.00000000	    141.96037744	   1098.18994773	     36.16077804	      1.93826272	      0.00000000	      0.90187175	     -0.00000000	     10.97997471	      0.00000000
     22.50500000	      0.00000000	      0.00000000	      0.00000000	      0.00000000	      0.00000000	      0.00000000	      0.00000000	      0.00000000	      0.00000000	    143.55749920	   1081.01778816	     34.89024042	      1.93603475	      0.00000000	      0.90186473	     -0.00000000	     10.81282708	      0.00000000
     22.50600000	      0.00000000	      0.00000000	      0.00000000	      0.00000000	      0.00000000	      0.00000000	      0.00000000	      0.00000000	      0.00000000	    145.15462097	   1063.84562858	     33.61970280	      1.93380677	      0.00000000	      0.90185770	     -0.00000000	     10.64567944	      0.00000000
     22.50700000	      0.00000000	      0.00000000	      0.00000000	      0.00000000	      0.00000000	      0.00000000	      0.00000000	      0.00000000	      0.00000000	    146.65247961	   1046.54426661	     32.36322625	      1.93157372	      0.00000000	      0.90185052	     -0.00000000	     10.47631056	      0.00000000
     22.50800000	      0.00000000	      0.00000000	      0.00000000	      0.00000000	      0.00000000	      0.00000000	      0.00000000	      0.00000000	      0.00000000	    147.95181198	   1028.98449984	     31.13487184	      1.92933053	      0.00000000	      0.90184304	     -0.00000000	     10.30249917	      0.00000000
     22.50900000	      0.00000000	      0.00000000	      0.00000000	      0.00000000	      0.00000000	      0.00000000	      0.00000000	      0.00000000	      0.00000000	    149.25114435	   1011.42473306	     29.90651744	      1.92708734	      0.00000000	      0.90183556	     -0.00000000	     10.12868779	      0.00000000
     22.51000000	      0.00000000	      0.00000000	      0.00000000	      0.00000000	      0.00000000	      0.00000000	      0.00000000	      0.00000000	      0.00000000	    150.55047673	    993.86496629	     28.67816303	      1.92484416	      0.00000000	      0.90182808	     -0.00000000	      9.95487641	      0.00000000
     22.51100000	      0.00000000	      0.00000000	      0.00000000	      0.00000000	      0.00000000	      0.00000000	      0.00000000	      0.00000000	      0.00000000	    151.52476697	    975.99144085	     27.50869107	      1.92259038	      0.00000000	      0.90182149	     -0.00000000	      9.77647314	      0.00000000
     22.51200000	      0.00000000	      0.00000000	      0.00000000	      0.00000000	      0.00000000	      0.00000000	      0.00000000	      0.00000000	      0.00000000	    152.49905721	    958.11791541	     26.33921911	      1.92033661	      0.00000000	      0.90181489	     -0.00000000	      9.59806987	      0.00000000
     22.51300000	      0.00000000	      0.00000000	      0.00000000	      0.00000000	      0.00000000	      0.00000000	      0.00000000	      0.00000000	      0.00000000	    153.47334746	    940.24438997	     25.16974715	      1.91808284	      0.00000000	      0.90180829	     -0.00000000	      9.41966661	      0.00000000
     22.51400000	      0.00000000	      0.00000000	      0.00000000	      0.00000000	      0.00000000	      0.00000000	      0.00000000	      0.00000000	      0.00000000	    154.21627037	    922.21664488	     24.04978631	      1.91582541	      0.00000000	      0.90180344	     -0.00000000	      9.23969138	      0.00000000
     22.51500000	      0.00000000	      0.00000000	      0.00000000	      0.00000000	      0.00000000	      0.00000000	      0.00000000	      0.00000000	      0.00000000	    154.84350961	    904.11178996	     22.95458104	      1.91356616	      0.00000000	      0.90179946	     -0.00000000	      9.05893018	      0.00000000
     22.51600000	      0.00000000	      0.00000000	      0.00000000	      0.00000000	      0.00000000	      0.00000000	      0.00000000	      0.00000000	      0.00000000	    155.47074886	    886.00693505	     21.85937577	      1.91130690	      0.00000000	      0.90179548	     -0.00000000	      8.87816898	      0.00000000
     22.51700000	      0.00000000	      0.00000000	      0.00000000	      0.00000000	      0.00000000	      0.00000000	      0.00000000	      0.00000000	      0.00000000	    155.97710860	    867.85518260	     20.79345738	      1.90904766	      0.00000000	      0.90179306	     -0.00000000	      8.69740469	      0.00000000
     22.51800000	      0.00000000	      0.00000000	      0.00000000	      0.00000000	      0.00000000	      0.00000000	      0.00000000	      0.00000000	      0.00000000	    156.24170931	    849.60963510	     19.78611277	      1.90678844	      0.00000000	      0.90179377	     -0.00000000	      8.51663424	      0.00000000
     22.51900000	      0.00000000	      0.00000000	      0.00000000	      0.00000000	      0.00000000	      0.00000000	      0.00000000	      0.00000000	      0.00000000	    156.50631003	    831.36408759	     18.77876816	      1.90452922	      0.00000000	      0.90179448	     -0.00000000	      8.33586379	      0.00000000
     22.52000000	      0.00000000	      0.00000000	      0.00000000	      0.00000000	      0.00000000	      0.00000000	      0.00000000	      0.00000000	      0.00000000	    156.77091075	    813.11854009	     17.77142355	      1.90227000	      0.00000000	      0.90179519	     -0.00000000	      8.15509334	      0.00000000
     22.52100000	      0.00000000	      0.00000000	      0.00000000	      0.00000000	      0.00000000	      0.00000000	      0.00000000	      0.00000000	      0.00000000	    156.66465852	    794.83035164	     16.86333550	      1.90001673	      0.00000000	      0.90180294	     -0.00000000	      7.97672051	      0.00000000
     22.52200000	      0.00000000	      0.00000000	      0.00000000	      0.00000000	      0.00000000	      0.00000000	      0.00000000	      0.00000000	      0.00000000	    156.55840629	    776.54216319	     15.95524744	      1.89776347	      0.00000000	      0.90181069	     -0.00000000	      7.79834768	      0.00000000
     22.52300000	      0.00000000	      0.00000000	      0.00000000	      0.00000000	      0.00000000	      0.00000000	      0.00000000	      0.00000000	      0.00000000	    156.45215405	    758.25397474	     15.04715938	      1.89551020	      0.00000000	      0.90181844	     -0.00000000	      7.61997484	      0.00000000
     22.52400000	      0.00000000	      0.00000000	      0.00000000	      0.00000000	      0.00000000	      0.00000000	      0.00000000	      0.00000000	      0.00000000	    156.09856442	    740.00687965	     14.21115605	      1.89326513	      0.00000000	      0.90183255	     -0.00000000	      7.44480062	      0.00000000
